<?xml version="1.0" encoding="utf-8" standalone="no"?>
<!DOCTYPE svg PUBLIC "-//W3C//DTD SVG 1.1//EN"
  "http://www.w3.org/Graphics/SVG/1.1/DTD/svg11.dtd">
<svg height="288pt" version="1.1" viewBox="0 0 432 288" width="432pt" xmlns="http://www.w3.org/2000/svg" xmlns:xlink="http://www.w3.org/1999/xlink">
 <metadata>
  <rdf:RDF xmlns:cc="http://creativecommons.org/ns#" xmlns:dc="http://purl.org/dc/elements/1.1/" xmlns:rdf="http://www.w3.org/1999/02/22-rdf-syntax-ns#">
   <cc:Work>
    <dc:type rdf:resource="http://purl.org/dc/dcmitype/StillImage"/>
    <dc:date>2021-10-16T14:07:29.170229</dc:date>
    <dc:format>image/svg+xml</dc:format>
    <dc:creator>
     <cc:Agent>
      <dc:title>Matplotlib v3.4.3, https://matplotlib.org/</dc:title>
     </cc:Agent>
    </dc:creator>
   </cc:Work>
  </rdf:RDF>
 </metadata>
 <defs>
  <style type="text/css">*{stroke-linecap:butt;stroke-linejoin:round;}</style>
 </defs>
 <g id="figure_1">
  <g id="patch_1">
   <path d="M 0 288 
L 432 288 
L 432 0 
L 0 0 
z
" style="fill:none;"/>
  </g>
  <g id="axes_1">
   <g id="patch_2">
    <path d="M 54 230.4 
L 388.8 230.4 
L 388.8 34.56 
L 54 34.56 
z
" style="fill:#ffffff;"/>
   </g>
   <g id="matplotlib.axis_1">
    <g id="xtick_1">
     <g id="line2d_1">
      <defs>
       <path d="M 0 0 
L 0 3.5 
" id="mc304fa8b97" style="stroke:#000000;stroke-width:0.8;"/>
      </defs>
      <g>
       <use style="stroke:#000000;stroke-width:0.8;" x="82.596803" xlink:href="#mc304fa8b97" y="230.4"/>
      </g>
     </g>
     <g id="text_1">
      <!-- 2020-11 -->
      <g transform="translate(45.371982 264.871846)rotate(-30)scale(0.1 -0.1)">
       <defs>
        <path d="M 1228 531 
L 3431 531 
L 3431 0 
L 469 0 
L 469 531 
Q 828 903 1448 1529 
Q 2069 2156 2228 2338 
Q 2531 2678 2651 2914 
Q 2772 3150 2772 3378 
Q 2772 3750 2511 3984 
Q 2250 4219 1831 4219 
Q 1534 4219 1204 4116 
Q 875 4013 500 3803 
L 500 4441 
Q 881 4594 1212 4672 
Q 1544 4750 1819 4750 
Q 2544 4750 2975 4387 
Q 3406 4025 3406 3419 
Q 3406 3131 3298 2873 
Q 3191 2616 2906 2266 
Q 2828 2175 2409 1742 
Q 1991 1309 1228 531 
z
" id="DejaVuSans-32" transform="scale(0.015625)"/>
        <path d="M 2034 4250 
Q 1547 4250 1301 3770 
Q 1056 3291 1056 2328 
Q 1056 1369 1301 889 
Q 1547 409 2034 409 
Q 2525 409 2770 889 
Q 3016 1369 3016 2328 
Q 3016 3291 2770 3770 
Q 2525 4250 2034 4250 
z
M 2034 4750 
Q 2819 4750 3233 4129 
Q 3647 3509 3647 2328 
Q 3647 1150 3233 529 
Q 2819 -91 2034 -91 
Q 1250 -91 836 529 
Q 422 1150 422 2328 
Q 422 3509 836 4129 
Q 1250 4750 2034 4750 
z
" id="DejaVuSans-30" transform="scale(0.015625)"/>
        <path d="M 313 2009 
L 1997 2009 
L 1997 1497 
L 313 1497 
L 313 2009 
z
" id="DejaVuSans-2d" transform="scale(0.015625)"/>
        <path d="M 794 531 
L 1825 531 
L 1825 4091 
L 703 3866 
L 703 4441 
L 1819 4666 
L 2450 4666 
L 2450 531 
L 3481 531 
L 3481 0 
L 794 0 
L 794 531 
z
" id="DejaVuSans-31" transform="scale(0.015625)"/>
       </defs>
       <use xlink:href="#DejaVuSans-32"/>
       <use x="63.623047" xlink:href="#DejaVuSans-30"/>
       <use x="127.246094" xlink:href="#DejaVuSans-32"/>
       <use x="190.869141" xlink:href="#DejaVuSans-30"/>
       <use x="254.492188" xlink:href="#DejaVuSans-2d"/>
       <use x="290.576172" xlink:href="#DejaVuSans-31"/>
       <use x="354.199219" xlink:href="#DejaVuSans-31"/>
      </g>
     </g>
    </g>
    <g id="xtick_2">
     <g id="line2d_2">
      <g>
       <use style="stroke:#000000;stroke-width:0.8;" x="133.602797" xlink:href="#mc304fa8b97" y="230.4"/>
      </g>
     </g>
     <g id="text_2">
      <!-- 2021-01 -->
      <g transform="translate(96.377976 264.871846)rotate(-30)scale(0.1 -0.1)">
       <use xlink:href="#DejaVuSans-32"/>
       <use x="63.623047" xlink:href="#DejaVuSans-30"/>
       <use x="127.246094" xlink:href="#DejaVuSans-32"/>
       <use x="190.869141" xlink:href="#DejaVuSans-31"/>
       <use x="254.492188" xlink:href="#DejaVuSans-2d"/>
       <use x="290.576172" xlink:href="#DejaVuSans-30"/>
       <use x="354.199219" xlink:href="#DejaVuSans-31"/>
      </g>
     </g>
    </g>
    <g id="xtick_3">
     <g id="line2d_3">
      <g>
       <use style="stroke:#000000;stroke-width:0.8;" x="182.936464" xlink:href="#mc304fa8b97" y="230.4"/>
      </g>
     </g>
     <g id="text_3">
      <!-- 2021-03 -->
      <g transform="translate(145.711643 264.871846)rotate(-30)scale(0.1 -0.1)">
       <defs>
        <path d="M 2597 2516 
Q 3050 2419 3304 2112 
Q 3559 1806 3559 1356 
Q 3559 666 3084 287 
Q 2609 -91 1734 -91 
Q 1441 -91 1130 -33 
Q 819 25 488 141 
L 488 750 
Q 750 597 1062 519 
Q 1375 441 1716 441 
Q 2309 441 2620 675 
Q 2931 909 2931 1356 
Q 2931 1769 2642 2001 
Q 2353 2234 1838 2234 
L 1294 2234 
L 1294 2753 
L 1863 2753 
Q 2328 2753 2575 2939 
Q 2822 3125 2822 3475 
Q 2822 3834 2567 4026 
Q 2313 4219 1838 4219 
Q 1578 4219 1281 4162 
Q 984 4106 628 3988 
L 628 4550 
Q 988 4650 1302 4700 
Q 1616 4750 1894 4750 
Q 2613 4750 3031 4423 
Q 3450 4097 3450 3541 
Q 3450 3153 3228 2886 
Q 3006 2619 2597 2516 
z
" id="DejaVuSans-33" transform="scale(0.015625)"/>
       </defs>
       <use xlink:href="#DejaVuSans-32"/>
       <use x="63.623047" xlink:href="#DejaVuSans-30"/>
       <use x="127.246094" xlink:href="#DejaVuSans-32"/>
       <use x="190.869141" xlink:href="#DejaVuSans-31"/>
       <use x="254.492188" xlink:href="#DejaVuSans-2d"/>
       <use x="290.576172" xlink:href="#DejaVuSans-30"/>
       <use x="354.199219" xlink:href="#DejaVuSans-33"/>
      </g>
     </g>
    </g>
    <g id="xtick_4">
     <g id="line2d_4">
      <g>
       <use style="stroke:#000000;stroke-width:0.8;" x="233.942458" xlink:href="#mc304fa8b97" y="230.4"/>
      </g>
     </g>
     <g id="text_4">
      <!-- 2021-05 -->
      <g transform="translate(196.717637 264.871846)rotate(-30)scale(0.1 -0.1)">
       <defs>
        <path d="M 691 4666 
L 3169 4666 
L 3169 4134 
L 1269 4134 
L 1269 2991 
Q 1406 3038 1543 3061 
Q 1681 3084 1819 3084 
Q 2600 3084 3056 2656 
Q 3513 2228 3513 1497 
Q 3513 744 3044 326 
Q 2575 -91 1722 -91 
Q 1428 -91 1123 -41 
Q 819 9 494 109 
L 494 744 
Q 775 591 1075 516 
Q 1375 441 1709 441 
Q 2250 441 2565 725 
Q 2881 1009 2881 1497 
Q 2881 1984 2565 2268 
Q 2250 2553 1709 2553 
Q 1456 2553 1204 2497 
Q 953 2441 691 2322 
L 691 4666 
z
" id="DejaVuSans-35" transform="scale(0.015625)"/>
       </defs>
       <use xlink:href="#DejaVuSans-32"/>
       <use x="63.623047" xlink:href="#DejaVuSans-30"/>
       <use x="127.246094" xlink:href="#DejaVuSans-32"/>
       <use x="190.869141" xlink:href="#DejaVuSans-31"/>
       <use x="254.492188" xlink:href="#DejaVuSans-2d"/>
       <use x="290.576172" xlink:href="#DejaVuSans-30"/>
       <use x="354.199219" xlink:href="#DejaVuSans-35"/>
      </g>
     </g>
    </g>
    <g id="xtick_5">
     <g id="line2d_5">
      <g>
       <use style="stroke:#000000;stroke-width:0.8;" x="284.948452" xlink:href="#mc304fa8b97" y="230.4"/>
      </g>
     </g>
     <g id="text_5">
      <!-- 2021-07 -->
      <g transform="translate(247.723631 264.871846)rotate(-30)scale(0.1 -0.1)">
       <defs>
        <path d="M 525 4666 
L 3525 4666 
L 3525 4397 
L 1831 0 
L 1172 0 
L 2766 4134 
L 525 4134 
L 525 4666 
z
" id="DejaVuSans-37" transform="scale(0.015625)"/>
       </defs>
       <use xlink:href="#DejaVuSans-32"/>
       <use x="63.623047" xlink:href="#DejaVuSans-30"/>
       <use x="127.246094" xlink:href="#DejaVuSans-32"/>
       <use x="190.869141" xlink:href="#DejaVuSans-31"/>
       <use x="254.492188" xlink:href="#DejaVuSans-2d"/>
       <use x="290.576172" xlink:href="#DejaVuSans-30"/>
       <use x="354.199219" xlink:href="#DejaVuSans-37"/>
      </g>
     </g>
    </g>
    <g id="xtick_6">
     <g id="line2d_6">
      <g>
       <use style="stroke:#000000;stroke-width:0.8;" x="336.790609" xlink:href="#mc304fa8b97" y="230.4"/>
      </g>
     </g>
     <g id="text_6">
      <!-- 2021-09 -->
      <g transform="translate(299.565789 264.871846)rotate(-30)scale(0.1 -0.1)">
       <defs>
        <path d="M 703 97 
L 703 672 
Q 941 559 1184 500 
Q 1428 441 1663 441 
Q 2288 441 2617 861 
Q 2947 1281 2994 2138 
Q 2813 1869 2534 1725 
Q 2256 1581 1919 1581 
Q 1219 1581 811 2004 
Q 403 2428 403 3163 
Q 403 3881 828 4315 
Q 1253 4750 1959 4750 
Q 2769 4750 3195 4129 
Q 3622 3509 3622 2328 
Q 3622 1225 3098 567 
Q 2575 -91 1691 -91 
Q 1453 -91 1209 -44 
Q 966 3 703 97 
z
M 1959 2075 
Q 2384 2075 2632 2365 
Q 2881 2656 2881 3163 
Q 2881 3666 2632 3958 
Q 2384 4250 1959 4250 
Q 1534 4250 1286 3958 
Q 1038 3666 1038 3163 
Q 1038 2656 1286 2365 
Q 1534 2075 1959 2075 
z
" id="DejaVuSans-39" transform="scale(0.015625)"/>
       </defs>
       <use xlink:href="#DejaVuSans-32"/>
       <use x="63.623047" xlink:href="#DejaVuSans-30"/>
       <use x="127.246094" xlink:href="#DejaVuSans-32"/>
       <use x="190.869141" xlink:href="#DejaVuSans-31"/>
       <use x="254.492188" xlink:href="#DejaVuSans-2d"/>
       <use x="290.576172" xlink:href="#DejaVuSans-30"/>
       <use x="354.199219" xlink:href="#DejaVuSans-39"/>
      </g>
     </g>
    </g>
    <g id="xtick_7">
     <g id="line2d_7">
      <g>
       <use style="stroke:#000000;stroke-width:0.8;" x="387.796603" xlink:href="#mc304fa8b97" y="230.4"/>
      </g>
     </g>
     <g id="text_7">
      <!-- 2021-11 -->
      <g transform="translate(350.571783 264.871846)rotate(-30)scale(0.1 -0.1)">
       <use xlink:href="#DejaVuSans-32"/>
       <use x="63.623047" xlink:href="#DejaVuSans-30"/>
       <use x="127.246094" xlink:href="#DejaVuSans-32"/>
       <use x="190.869141" xlink:href="#DejaVuSans-31"/>
       <use x="254.492188" xlink:href="#DejaVuSans-2d"/>
       <use x="290.576172" xlink:href="#DejaVuSans-31"/>
       <use x="354.199219" xlink:href="#DejaVuSans-31"/>
      </g>
     </g>
    </g>
    <g id="text_8">
     <!-- Date -->
     <g transform="translate(209.449219 278.271346)scale(0.1 -0.1)">
      <defs>
       <path d="M 1259 4147 
L 1259 519 
L 2022 519 
Q 2988 519 3436 956 
Q 3884 1394 3884 2338 
Q 3884 3275 3436 3711 
Q 2988 4147 2022 4147 
L 1259 4147 
z
M 628 4666 
L 1925 4666 
Q 3281 4666 3915 4102 
Q 4550 3538 4550 2338 
Q 4550 1131 3912 565 
Q 3275 0 1925 0 
L 628 0 
L 628 4666 
z
" id="DejaVuSans-44" transform="scale(0.015625)"/>
       <path d="M 2194 1759 
Q 1497 1759 1228 1600 
Q 959 1441 959 1056 
Q 959 750 1161 570 
Q 1363 391 1709 391 
Q 2188 391 2477 730 
Q 2766 1069 2766 1631 
L 2766 1759 
L 2194 1759 
z
M 3341 1997 
L 3341 0 
L 2766 0 
L 2766 531 
Q 2569 213 2275 61 
Q 1981 -91 1556 -91 
Q 1019 -91 701 211 
Q 384 513 384 1019 
Q 384 1609 779 1909 
Q 1175 2209 1959 2209 
L 2766 2209 
L 2766 2266 
Q 2766 2663 2505 2880 
Q 2244 3097 1772 3097 
Q 1472 3097 1187 3025 
Q 903 2953 641 2809 
L 641 3341 
Q 956 3463 1253 3523 
Q 1550 3584 1831 3584 
Q 2591 3584 2966 3190 
Q 3341 2797 3341 1997 
z
" id="DejaVuSans-61" transform="scale(0.015625)"/>
       <path d="M 1172 4494 
L 1172 3500 
L 2356 3500 
L 2356 3053 
L 1172 3053 
L 1172 1153 
Q 1172 725 1289 603 
Q 1406 481 1766 481 
L 2356 481 
L 2356 0 
L 1766 0 
Q 1100 0 847 248 
Q 594 497 594 1153 
L 594 3053 
L 172 3053 
L 172 3500 
L 594 3500 
L 594 4494 
L 1172 4494 
z
" id="DejaVuSans-74" transform="scale(0.015625)"/>
       <path d="M 3597 1894 
L 3597 1613 
L 953 1613 
Q 991 1019 1311 708 
Q 1631 397 2203 397 
Q 2534 397 2845 478 
Q 3156 559 3463 722 
L 3463 178 
Q 3153 47 2828 -22 
Q 2503 -91 2169 -91 
Q 1331 -91 842 396 
Q 353 884 353 1716 
Q 353 2575 817 3079 
Q 1281 3584 2069 3584 
Q 2775 3584 3186 3129 
Q 3597 2675 3597 1894 
z
M 3022 2063 
Q 3016 2534 2758 2815 
Q 2500 3097 2075 3097 
Q 1594 3097 1305 2825 
Q 1016 2553 972 2059 
L 3022 2063 
z
" id="DejaVuSans-65" transform="scale(0.015625)"/>
      </defs>
      <use xlink:href="#DejaVuSans-44"/>
      <use x="77.001953" xlink:href="#DejaVuSans-61"/>
      <use x="138.28125" xlink:href="#DejaVuSans-74"/>
      <use x="177.490234" xlink:href="#DejaVuSans-65"/>
     </g>
    </g>
   </g>
   <g id="matplotlib.axis_2">
    <g id="ytick_1">
     <g id="line2d_8">
      <defs>
       <path d="M 0 0 
L -3.5 0 
" id="mde55d4059e" style="stroke:#000000;stroke-width:0.8;"/>
      </defs>
      <g>
       <use style="stroke:#000000;stroke-width:0.8;" x="54" xlink:href="#mde55d4059e" y="226.104103"/>
      </g>
     </g>
     <g id="text_9">
      <!-- 3200 -->
      <g transform="translate(21.55 229.903322)scale(0.1 -0.1)">
       <use xlink:href="#DejaVuSans-33"/>
       <use x="63.623047" xlink:href="#DejaVuSans-32"/>
       <use x="127.246094" xlink:href="#DejaVuSans-30"/>
       <use x="190.869141" xlink:href="#DejaVuSans-30"/>
      </g>
     </g>
    </g>
    <g id="ytick_2">
     <g id="line2d_9">
      <g>
       <use style="stroke:#000000;stroke-width:0.8;" x="54" xlink:href="#mde55d4059e" y="198.962552"/>
      </g>
     </g>
     <g id="text_10">
      <!-- 3400 -->
      <g transform="translate(21.55 202.76177)scale(0.1 -0.1)">
       <defs>
        <path d="M 2419 4116 
L 825 1625 
L 2419 1625 
L 2419 4116 
z
M 2253 4666 
L 3047 4666 
L 3047 1625 
L 3713 1625 
L 3713 1100 
L 3047 1100 
L 3047 0 
L 2419 0 
L 2419 1100 
L 313 1100 
L 313 1709 
L 2253 4666 
z
" id="DejaVuSans-34" transform="scale(0.015625)"/>
       </defs>
       <use xlink:href="#DejaVuSans-33"/>
       <use x="63.623047" xlink:href="#DejaVuSans-34"/>
       <use x="127.246094" xlink:href="#DejaVuSans-30"/>
       <use x="190.869141" xlink:href="#DejaVuSans-30"/>
      </g>
     </g>
    </g>
    <g id="ytick_3">
     <g id="line2d_10">
      <g>
       <use style="stroke:#000000;stroke-width:0.8;" x="54" xlink:href="#mde55d4059e" y="171.821"/>
      </g>
     </g>
     <g id="text_11">
      <!-- 3600 -->
      <g transform="translate(21.55 175.620219)scale(0.1 -0.1)">
       <defs>
        <path d="M 2113 2584 
Q 1688 2584 1439 2293 
Q 1191 2003 1191 1497 
Q 1191 994 1439 701 
Q 1688 409 2113 409 
Q 2538 409 2786 701 
Q 3034 994 3034 1497 
Q 3034 2003 2786 2293 
Q 2538 2584 2113 2584 
z
M 3366 4563 
L 3366 3988 
Q 3128 4100 2886 4159 
Q 2644 4219 2406 4219 
Q 1781 4219 1451 3797 
Q 1122 3375 1075 2522 
Q 1259 2794 1537 2939 
Q 1816 3084 2150 3084 
Q 2853 3084 3261 2657 
Q 3669 2231 3669 1497 
Q 3669 778 3244 343 
Q 2819 -91 2113 -91 
Q 1303 -91 875 529 
Q 447 1150 447 2328 
Q 447 3434 972 4092 
Q 1497 4750 2381 4750 
Q 2619 4750 2861 4703 
Q 3103 4656 3366 4563 
z
" id="DejaVuSans-36" transform="scale(0.015625)"/>
       </defs>
       <use xlink:href="#DejaVuSans-33"/>
       <use x="63.623047" xlink:href="#DejaVuSans-36"/>
       <use x="127.246094" xlink:href="#DejaVuSans-30"/>
       <use x="190.869141" xlink:href="#DejaVuSans-30"/>
      </g>
     </g>
    </g>
    <g id="ytick_4">
     <g id="line2d_11">
      <g>
       <use style="stroke:#000000;stroke-width:0.8;" x="54" xlink:href="#mde55d4059e" y="144.679449"/>
      </g>
     </g>
     <g id="text_12">
      <!-- 3800 -->
      <g transform="translate(21.55 148.478668)scale(0.1 -0.1)">
       <defs>
        <path d="M 2034 2216 
Q 1584 2216 1326 1975 
Q 1069 1734 1069 1313 
Q 1069 891 1326 650 
Q 1584 409 2034 409 
Q 2484 409 2743 651 
Q 3003 894 3003 1313 
Q 3003 1734 2745 1975 
Q 2488 2216 2034 2216 
z
M 1403 2484 
Q 997 2584 770 2862 
Q 544 3141 544 3541 
Q 544 4100 942 4425 
Q 1341 4750 2034 4750 
Q 2731 4750 3128 4425 
Q 3525 4100 3525 3541 
Q 3525 3141 3298 2862 
Q 3072 2584 2669 2484 
Q 3125 2378 3379 2068 
Q 3634 1759 3634 1313 
Q 3634 634 3220 271 
Q 2806 -91 2034 -91 
Q 1263 -91 848 271 
Q 434 634 434 1313 
Q 434 1759 690 2068 
Q 947 2378 1403 2484 
z
M 1172 3481 
Q 1172 3119 1398 2916 
Q 1625 2713 2034 2713 
Q 2441 2713 2670 2916 
Q 2900 3119 2900 3481 
Q 2900 3844 2670 4047 
Q 2441 4250 2034 4250 
Q 1625 4250 1398 4047 
Q 1172 3844 1172 3481 
z
" id="DejaVuSans-38" transform="scale(0.015625)"/>
       </defs>
       <use xlink:href="#DejaVuSans-33"/>
       <use x="63.623047" xlink:href="#DejaVuSans-38"/>
       <use x="127.246094" xlink:href="#DejaVuSans-30"/>
       <use x="190.869141" xlink:href="#DejaVuSans-30"/>
      </g>
     </g>
    </g>
    <g id="ytick_5">
     <g id="line2d_12">
      <g>
       <use style="stroke:#000000;stroke-width:0.8;" x="54" xlink:href="#mde55d4059e" y="117.537897"/>
      </g>
     </g>
     <g id="text_13">
      <!-- 4000 -->
      <g transform="translate(21.55 121.337116)scale(0.1 -0.1)">
       <use xlink:href="#DejaVuSans-34"/>
       <use x="63.623047" xlink:href="#DejaVuSans-30"/>
       <use x="127.246094" xlink:href="#DejaVuSans-30"/>
       <use x="190.869141" xlink:href="#DejaVuSans-30"/>
      </g>
     </g>
    </g>
    <g id="ytick_6">
     <g id="line2d_13">
      <g>
       <use style="stroke:#000000;stroke-width:0.8;" x="54" xlink:href="#mde55d4059e" y="90.396346"/>
      </g>
     </g>
     <g id="text_14">
      <!-- 4200 -->
      <g transform="translate(21.55 94.195565)scale(0.1 -0.1)">
       <use xlink:href="#DejaVuSans-34"/>
       <use x="63.623047" xlink:href="#DejaVuSans-32"/>
       <use x="127.246094" xlink:href="#DejaVuSans-30"/>
       <use x="190.869141" xlink:href="#DejaVuSans-30"/>
      </g>
     </g>
    </g>
    <g id="ytick_7">
     <g id="line2d_14">
      <g>
       <use style="stroke:#000000;stroke-width:0.8;" x="54" xlink:href="#mde55d4059e" y="63.254795"/>
      </g>
     </g>
     <g id="text_15">
      <!-- 4400 -->
      <g transform="translate(21.55 67.054013)scale(0.1 -0.1)">
       <use xlink:href="#DejaVuSans-34"/>
       <use x="63.623047" xlink:href="#DejaVuSans-34"/>
       <use x="127.246094" xlink:href="#DejaVuSans-30"/>
       <use x="190.869141" xlink:href="#DejaVuSans-30"/>
      </g>
     </g>
    </g>
    <g id="ytick_8">
     <g id="line2d_15">
      <g>
       <use style="stroke:#000000;stroke-width:0.8;" x="54" xlink:href="#mde55d4059e" y="36.113243"/>
      </g>
     </g>
     <g id="text_16">
      <!-- 4600 -->
      <g transform="translate(21.55 39.912462)scale(0.1 -0.1)">
       <use xlink:href="#DejaVuSans-34"/>
       <use x="63.623047" xlink:href="#DejaVuSans-36"/>
       <use x="127.246094" xlink:href="#DejaVuSans-30"/>
       <use x="190.869141" xlink:href="#DejaVuSans-30"/>
      </g>
     </g>
    </g>
   </g>
   <g id="line2d_16">
    <path clip-path="url(#pcebca56b14)" d="M 69.218182 187.588885 
L 71.726673 195.309299 
L 72.562837 193.110833 
L 73.399001 194.136784 
L 74.235165 191.703544 
L 75.071329 190.088621 
L 77.57982 198.830915 
L 78.415984 200.227348 
L 79.252148 216.464781 
L 80.088312 211.161322 
L 80.924476 216.609988 
L 83.432967 211.14368 
L 84.269131 203.166778 
L 85.941459 183.97363 
L 86.777622 184.110695 
L 89.286114 178.538534 
L 90.122278 179.213002 
L 90.958442 175.53125 
L 91.794605 180.369232 
L 92.630769 173.83626 
L 95.139261 168.169105 
L 95.975425 170.527705 
L 96.811588 176.192147 
L 97.647752 174.281382 
L 98.483916 177.583152 
L 100.992408 174.862211 
L 101.828571 167.015589 
L 102.664735 167.797265 
L 104.337063 166.616608 
L 106.845554 168.885641 
L 107.681718 163.346051 
L 108.517882 162.455808 
L 109.354046 162.766579 
L 110.19021 158.369647 
L 112.698701 159.341315 
L 113.534865 157.944882 
L 114.371029 161.938761 
L 116.043357 163.208986 
L 118.551848 165.376239 
L 119.388012 158.980332 
L 120.224176 158.091446 
L 121.06034 155.199514 
L 121.896503 156.973215 
L 124.404995 158.93962 
L 125.241159 159.979141 
L 126.077323 159.605945 
L 126.913487 157.834959 
L 130.258142 153.451598 
L 131.094306 154.580687 
L 131.93047 153.902148 
L 132.766633 150.641091 
L 136.111289 158.162014 
L 136.947453 154.605114 
L 137.783616 151.717253 
L 138.61978 144.165116 
L 139.455944 141.330181 
L 141.964436 144.732375 
L 142.800599 144.517957 
L 143.636763 143.344084 
L 144.472927 145.284705 
L 145.309091 148.98817 
L 148.653746 144.82737 
L 149.48991 137.643002 
L 150.326074 137.477438 
L 151.162238 139.051648 
L 153.670729 137.166667 
L 154.506893 137.94563 
L 155.343057 151.360342 
L 156.179221 146.392081 
L 157.015385 156.317746 
L 159.523876 148.22685 
L 160.36004 141.108978 
L 161.196204 140.585146 
L 162.032368 134.943774 
L 162.868531 132.895944 
L 165.377023 128.992989 
L 166.213187 129.584675 
L 167.049351 129.76788 
L 167.885514 128.88578 
L 168.721678 126.381972 
L 172.902498 126.856949 
L 173.738661 129.212836 
L 174.574825 130.198074 
L 177.083317 134.297805 
L 177.919481 133.636909 
L 178.755644 127.657625 
L 179.591808 140.697783 
L 180.427972 143.166307 
L 182.936464 130.861685 
L 183.772627 135.140551 
L 185.444955 148.958314 
L 186.281119 138.987865 
L 188.78961 141.782088 
L 189.625774 134.441656 
L 190.461938 131.270165 
L 191.298102 125.76993 
L 192.134266 125.227099 
L 194.642757 121.75298 
L 195.478921 122.59844 
L 196.315085 121.050014 
L 197.151249 129.010631 
L 197.987413 129.330901 
L 200.495904 125.600295 
L 201.332068 129.681028 
L 202.168232 132.582459 
L 203.004396 129.816735 
L 203.840559 120.993017 
L 206.349051 121.461209 
L 207.185215 123.162984 
L 208.021379 121.216935 
L 208.857542 114.841384 
L 212.202198 106.964906 
L 213.038362 107.503666 
L 213.874525 106.688062 
L 214.710689 104.351175 
L 215.546853 100.058738 
L 218.055345 100.168662 
L 218.891508 98.323036 
L 219.727672 100.620568 
L 220.563836 94.410581 
L 221.4 92.36818 
L 223.908492 95.382249 
L 224.744655 99.225493 
L 225.580819 94.003458 
L 226.416983 99.220064 
L 227.253147 93.087431 
L 229.761638 92.076408 
L 230.597802 92.198545 
L 231.433966 92.67895 
L 232.27013 88.839778 
L 233.106294 92.951723 
L 235.614785 91.392441 
L 236.450949 95.192258 
L 237.287113 94.794634 
L 238.959441 85.972273 
L 241.467932 91.966485 
L 242.304096 96.896748 
L 243.14026 108.98288 
L 243.976424 102.270775 
L 244.812587 93.945104 
L 247.321079 95.378178 
L 248.157243 100.190375 
L 248.993407 101.839224 
L 249.82957 95.944079 
L 250.665734 96.386486 
L 253.174226 90.796684 
L 254.01039 92.007197 
L 254.846553 90.940534 
L 255.682717 90.276923 
L 256.518881 89.838587 
L 259.863536 90.119502 
L 260.6997 89.294399 
L 261.535864 91.366656 
L 262.372028 86.340041 
L 264.880519 86.797376 
L 265.716683 86.696953 
L 266.552847 87.743259 
L 267.389011 85.079316 
L 268.225175 83.95837 
L 270.733666 82.912063 
L 271.56983 84.073722 
L 272.405994 87.180072 
L 273.242158 87.429774 
L 274.078322 94.949341 
L 277.422977 84.094078 
L 278.259141 84.718333 
L 279.095305 81.373137 
L 279.931469 79.44473 
L 282.43996 78.099866 
L 283.276124 77.938374 
L 284.112288 77.16484 
L 284.948452 74.119558 
L 285.784615 69.722626 
L 289.129271 70.916855 
L 289.965435 68.936878 
L 290.801598 74.000135 
L 291.637762 67.387096 
L 294.146254 65.340623 
L 294.982418 67.433236 
L 295.818581 66.742484 
L 296.654745 68.679034 
L 297.490909 73.139748 
L 299.999401 82.458799 
L 300.835564 73.696149 
L 301.671728 68.860882 
L 302.507892 67.668011 
L 303.344056 61.6548 
L 305.852547 60.228512 
L 306.688711 63.056661 
L 307.524875 63.167942 
L 308.361039 60.655991 
L 309.197203 63.898049 
L 311.705694 64.997282 
L 312.541858 60.11316 
L 313.378022 62.893812 
L 314.214186 59.305699 
L 315.05035 58.298747 
L 317.558841 58.864649 
L 318.395005 58.267534 
L 319.231169 56.781535 
L 320.067333 54.999692 
L 320.903497 54.026667 
L 323.411988 52.437529 
L 324.248152 56.729966 
L 325.084316 63.218153 
L 325.92048 62.46769 
L 326.756643 57.599852 
L 329.265135 52.461957 
L 330.101299 51.552715 
L 330.937463 50.201065 
L 331.773626 53.755252 
L 332.60979 48.412437 
L 335.118282 45.776993 
L 335.954446 46.606167 
L 336.790609 46.414819 
L 337.626773 44.669617 
L 338.462937 44.875893 
L 341.807592 46.965792 
L 342.643756 47.774611 
L 343.47992 50.595975 
L 344.316084 55.305034 
L 346.824575 53.9276 
L 347.660739 57.412576 
L 348.496903 52.303179 
L 349.333067 53.246347 
L 350.169231 58.777796 
L 352.677722 68.991161 
L 353.513886 69.471567 
L 354.35005 63.84648 
L 355.186214 56.607829 
L 356.022378 55.725728 
L 358.530869 57.404433 
L 359.367033 69.683271 
L 360.203197 68.756387 
L 361.039361 75.802334 
L 361.875524 69.0848 
L 364.384016 76.763145 
L 365.22018 70.621012 
L 366.056344 68.201342 
L 366.892507 63.287364 
L 367.728671 64.430024 
L 371.073327 69.951972 
L 371.909491 68.167415 
L 372.745654 58.062616 
L 373.581818 53.569332 
L 373.581818 53.569332 
" style="fill:none;stroke:#1f77b4;stroke-linecap:square;stroke-width:1.5;"/>
   </g>
   <g id="line2d_17">
    <path clip-path="url(#pcebca56b14)" d="M 69.218182 186.273876 
L 71.726673 186.252163 
L 72.562837 193.61838 
L 73.399001 193.546455 
L 74.235165 193.737803 
L 75.071329 190.155118 
L 77.57982 193.341536 
L 78.415984 198.535072 
L 80.088312 215.631535 
L 80.924476 213.403214 
L 83.432967 213.049017 
L 84.269131 207.613921 
L 85.941459 187.326969 
L 86.777622 184.259973 
L 89.286114 174.122604 
L 90.122278 179.521058 
L 90.958442 176.812332 
L 91.794605 176.886971 
L 92.630769 178.257619 
L 95.139261 171.799287 
L 95.975425 170.421853 
L 96.811588 170.180293 
L 97.647752 177.329378 
L 98.483916 174.628794 
L 100.992408 176.323784 
L 101.828571 172.564679 
L 102.664735 167.003375 
L 104.337063 166.589466 
L 106.845554 167.182509 
L 107.681718 165.596085 
L 108.517882 164.522637 
L 109.354046 162.554875 
L 110.19021 162.193892 
L 112.698701 158.965404 
L 113.534865 160.550471 
L 114.371029 157.438692 
L 115.207193 163.796601 
L 116.043357 164.210509 
L 118.551848 161.606277 
L 119.388012 162.808648 
L 120.224176 158.759129 
L 121.06034 156.397814 
L 121.896503 155.211728 
L 124.404995 160.38355 
L 125.241159 158.510783 
L 126.077323 159.143182 
L 126.913487 159.0604 
L 130.258142 155.124875 
L 131.094306 151.46348 
L 131.93047 153.338961 
L 132.766633 153.735227 
L 136.111289 149.482146 
L 136.947453 158.518926 
L 137.783616 156.59459 
L 139.455944 142.637047 
L 141.964436 144.253326 
L 142.800599 144.459602 
L 143.636763 144.376821 
L 144.472927 142.646547 
L 145.309091 146.208875 
L 148.653746 147.138473 
L 149.48991 142.478269 
L 150.326074 136.881681 
L 151.162238 138.675738 
L 153.670729 137.666072 
L 154.506893 136.135288 
L 155.343057 139.681332 
L 156.179221 150.684517 
L 157.015385 147.658234 
L 159.523876 154.020214 
L 160.36004 145.786824 
L 161.196204 139.214497 
L 162.032368 139.704402 
L 162.868531 134.053531 
L 165.377023 132.114268 
L 166.213187 129.685099 
L 167.049351 128.288666 
L 168.721678 129.527678 
L 172.066334 125.733289 
L 172.902498 128.59808 
L 173.738661 128.956348 
L 174.574825 128.237097 
L 177.083317 133.06965 
L 177.919481 136.934607 
L 178.755644 134.67643 
L 179.591808 128.964491 
L 180.427972 139.297279 
L 182.936464 138.910512 
L 183.772627 130.614697 
L 184.608791 135.995509 
L 185.444955 142.164784 
L 186.281119 145.550693 
L 188.78961 138.655381 
L 189.625774 137.632145 
L 190.461938 132.195692 
L 191.298102 128.999775 
L 192.134266 127.781119 
L 194.642757 125.278668 
L 195.478921 121.121939 
L 196.315085 124.38164 
L 197.151249 123.848308 
L 197.987413 129.325473 
L 200.495904 128.872209 
L 201.332068 126.006061 
L 202.168232 128.404018 
L 203.004396 133.912395 
L 203.840559 128.785356 
L 206.349051 121.702768 
L 207.185215 122.512944 
L 208.021379 121.982326 
L 208.857542 118.517707 
L 212.202198 112.864122 
L 213.038362 107.282462 
L 213.874525 107.456168 
L 214.710689 105.330985 
L 215.546853 104.495025 
L 218.055345 100.613783 
L 218.891508 99.882318 
L 219.727672 98.097761 
L 220.563836 98.571381 
L 221.4 93.905749 
L 223.908492 93.137643 
L 224.744655 95.935937 
L 225.580819 100.110307 
L 226.416983 94.405153 
L 227.253147 98.704375 
L 229.761638 92.427891 
L 230.597802 91.990912 
L 231.433966 92.412963 
L 232.27013 89.5631 
L 233.106294 90.654191 
L 235.614785 91.484722 
L 236.450949 93.240781 
L 237.287113 93.509482 
L 238.123277 94.584287 
L 238.959441 88.993128 
L 241.467932 86.557174 
L 242.304096 97.135593 
L 243.14026 99.82125 
L 243.976424 107.361173 
L 244.812587 99.952886 
L 247.321079 94.478435 
L 248.157243 95.018552 
L 248.993407 104.177469 
L 249.82957 100.985622 
L 250.665734 94.656212 
L 253.174226 94.445865 
L 254.01039 89.590242 
L 254.846553 91.537648 
L 256.518881 88.934773 
L 259.863536 88.154454 
L 260.6997 89.470819 
L 261.535864 91.559361 
L 262.372028 89.575314 
L 264.880519 86.41468 
L 265.716683 85.808067 
L 266.552847 85.919347 
L 267.389011 86.520532 
L 268.225175 84.574483 
L 270.733666 83.840304 
L 271.56983 82.894421 
L 272.405994 83.764308 
L 273.242158 87.631979 
L 274.078322 89.747663 
L 276.586813 94.006172 
L 277.422977 87.056578 
L 278.259141 83.710025 
L 279.095305 82.665075 
L 279.931469 80.292903 
L 282.43996 78.874757 
L 283.276124 77.747026 
L 284.112288 78.094438 
L 284.948452 76.726504 
L 285.784615 73.215744 
L 289.129271 69.16351 
L 289.965435 69.903118 
L 290.801598 73.966208 
L 291.637762 72.838476 
L 294.146254 66.998972 
L 294.982418 65.823742 
L 295.818581 65.954022 
L 296.654745 67.459021 
L 297.490909 67.674796 
L 299.999401 77.314118 
L 300.835564 81.560414 
L 301.671728 72.600988 
L 302.507892 68.510756 
L 303.344056 65.8061 
L 305.852547 61.954714 
L 306.688711 61.031901 
L 307.524875 62.854457 
L 308.361039 62.767604 
L 309.197203 63.917048 
L 311.705694 62.323839 
L 312.541858 64.240033 
L 313.378022 61.090256 
L 314.214186 62.052424 
L 315.05035 59.30977 
L 317.558841 58.129113 
L 318.395005 58.397814 
L 319.231169 57.530641 
L 320.067333 57.001381 
L 320.903497 54.455504 
L 323.411988 54.888411 
L 324.248152 54.824629 
L 325.084316 57.698919 
L 325.92048 65.637823 
L 326.756643 61.821721 
L 329.265135 56.430051 
L 330.101299 51.80106 
L 330.937463 50.980028 
L 331.773626 50.532192 
L 332.60979 53.19885 
L 335.118282 47.81668 
L 335.954446 45.646713 
L 336.790609 45.775635 
L 337.626773 45.004815 
L 338.462937 45.284373 
L 341.807592 44.882678 
L 342.643756 47.229066 
L 344.316084 48.744921 
L 346.824575 53.102497 
L 347.660739 52.489098 
L 348.496903 56.810033 
L 349.333067 52.793084 
L 350.169231 53.790536 
L 352.677722 62.854457 
L 353.513886 66.722128 
L 354.35005 67.674796 
L 355.186214 62.338767 
L 356.022378 58.092471 
L 358.530869 57.538784 
L 359.367033 60.603065 
L 360.203197 68.356049 
L 361.039361 67.235103 
L 361.875524 74.496825 
L 364.384016 70.197603 
L 365.22018 75.486135 
L 366.056344 74.169769 
L 366.892507 65.46276 
L 367.728671 62.371337 
L 370.237163 65.2307 
L 371.073327 67.555373 
L 371.909491 68.953163 
L 372.745654 65.052922 
L 373.581818 56.782892 
L 373.581818 56.782892 
" style="fill:none;stroke:#ff7f0e;stroke-linecap:square;stroke-width:1.5;"/>
   </g>
   <g id="line2d_18">
    <path clip-path="url(#pcebca56b14)" d="M 69.218182 183.253022 
L 71.726673 185.063363 
L 72.562837 188.522554 
L 73.399001 190.160547 
L 74.235165 190.748161 
L 75.071329 189.943414 
L 77.57982 193.341536 
L 78.415984 197.671971 
L 79.252148 206.768462 
L 80.088312 206.962524 
L 80.924476 211.864288 
L 83.432967 208.443096 
L 84.269131 200.38884 
L 85.105295 187.257758 
L 85.941459 181.449466 
L 86.777622 182.463203 
L 89.286114 165.5798 
L 90.122278 177.626578 
L 90.958442 174.377734 
L 91.794605 176.025227 
L 92.630769 172.681387 
L 95.139261 167.951972 
L 95.975425 168.684794 
L 96.811588 169.230339 
L 97.647752 173.826761 
L 98.483916 174.368235 
L 100.992408 173.203862 
L 101.828571 166.079205 
L 102.664735 167.003375 
L 104.337063 165.80779 
L 106.845554 167.182509 
L 107.681718 161.174727 
L 108.517882 162.191178 
L 109.354046 160.593898 
L 110.19021 158.358791 
L 112.698701 158.601708 
L 113.534865 157.103494 
L 114.371029 156.568805 
L 115.207193 161.169298 
L 116.043357 162.876502 
L 118.551848 158.574566 
L 119.388012 158.889408 
L 121.06034 154.841246 
L 121.896503 154.626827 
L 124.404995 157.856672 
L 125.241159 158.486356 
L 126.077323 156.724869 
L 126.913487 157.731821 
L 130.258142 152.752703 
L 131.094306 150.634305 
L 131.93047 152.193587 
L 132.766633 150.080618 
L 136.111289 148.752039 
L 136.947453 153.1164 
L 137.783616 146.981052 
L 138.61978 143.112024 
L 139.455944 141.057409 
L 141.964436 142.255708 
L 142.800599 143.216519 
L 143.636763 141.835014 
L 144.472927 141.476746 
L 145.309091 146.208875 
L 148.653746 144.064693 
L 149.48991 136.57091 
L 150.326074 136.340207 
L 151.162238 137.580576 
L 153.670729 136.641478 
L 154.506893 135.057769 
L 155.343057 139.681332 
L 156.179221 140.540362 
L 157.015385 147.658234 
L 159.523876 146.807346 
L 160.36004 138.831802 
L 161.196204 138.231973 
L 162.868531 131.846923 
L 165.377023 128.968562 
L 166.213187 128.618436 
L 167.049351 126.833879 
L 167.885514 127.581629 
L 168.721678 126.056273 
L 172.066334 124.264931 
L 172.902498 126.547535 
L 173.738661 128.125817 
L 174.574825 126.9818 
L 177.083317 130.712406 
L 177.919481 131.654218 
L 178.755644 127.220646 
L 179.591808 127.713265 
L 180.427972 136.390419 
L 182.936464 129.140911 
L 183.772627 130.238786 
L 185.444955 138.753091 
L 186.281119 137.664715 
L 188.78961 133.678978 
L 189.625774 130.598412 
L 190.461938 128.754144 
L 191.298102 122.929567 
L 192.134266 125.003181 
L 194.642757 121.598273 
L 195.478921 120.110916 
L 196.315085 119.726864 
L 197.151249 121.660699 
L 197.987413 127.021155 
L 200.495904 123.602677 
L 202.168232 125.398091 
L 203.004396 128.456944 
L 203.840559 120.497684 
L 206.349051 120.003707 
L 207.185215 121.879189 
L 208.857542 114.738246 
L 212.202198 106.217156 
L 213.038362 105.835818 
L 213.874525 106.256512 
L 214.710689 104.212753 
L 215.546853 99.966457 
L 218.055345 99.657043 
L 218.891508 97.453149 
L 219.727672 96.952388 
L 220.563836 93.993959 
L 221.4 91.575646 
L 223.908492 93.000578 
L 224.744655 95.935937 
L 225.580819 93.786326 
L 226.416983 93.168855 
L 227.253147 91.187522 
L 229.761638 91.184808 
L 230.597802 91.298803 
L 231.433966 90.188713 
L 232.27013 87.847754 
L 233.106294 90.654191 
L 235.614785 89.12205 
L 236.450949 93.240781 
L 237.287113 92.062837 
L 238.123277 90.029935 
L 238.959441 85.234023 
L 241.467932 85.457941 
L 242.304096 95.547812 
L 243.14026 99.253991 
L 243.976424 99.681471 
L 244.812587 92.685736 
L 247.321079 94.20702 
L 248.157243 94.58293 
L 248.993407 101.669589 
L 249.82957 94.087597 
L 250.665734 91.927129 
L 253.174226 89.104408 
L 254.01039 88.575148 
L 254.846553 90.042149 
L 255.682717 88.580576 
L 256.518881 87.904752 
L 259.863536 85.765997 
L 260.6997 88.039102 
L 261.535864 89.800589 
L 262.372028 85.856922 
L 264.880519 86.007557 
L 265.716683 85.410443 
L 266.552847 85.362945 
L 267.389011 83.646242 
L 268.225175 83.830805 
L 271.56983 82.639291 
L 272.405994 83.35447 
L 273.242158 86.014343 
L 274.078322 89.747663 
L 276.586813 86.835374 
L 277.422977 82.818425 
L 278.259141 82.715287 
L 279.931469 78.709194 
L 282.43996 77.892233 
L 283.276124 76.755002 
L 284.112288 76.4958 
L 284.948452 74.021848 
L 285.784615 69.303289 
L 289.129271 69.16351 
L 289.965435 68.427974 
L 290.801598 72.634915 
L 291.637762 67.108895 
L 294.982418 64.290245 
L 295.818581 64.112468 
L 296.654745 67.459021 
L 297.490909 66.635275 
L 299.999401 77.314118 
L 300.835564 71.826096 
L 301.671728 68.723817 
L 302.507892 67.343669 
L 303.344056 61.194751 
L 305.852547 60.170157 
L 306.688711 61.031901 
L 307.524875 61.155396 
L 308.361039 59.187633 
L 309.197203 61.592375 
L 311.705694 60.244797 
L 312.541858 60.026307 
L 313.378022 61.0604 
L 314.214186 59.216132 
L 315.05035 57.715204 
L 317.558841 57.909266 
L 318.395005 57.119447 
L 319.231169 56.545403 
L 320.067333 54.872126 
L 320.903497 53.976455 
L 323.411988 52.36289 
L 324.248152 54.824629 
L 325.084316 55.883149 
L 325.92048 60.729273 
L 326.756643 57.236156 
L 329.265135 51.057381 
L 330.101299 50.659758 
L 330.937463 49.451959 
L 331.773626 50.240421 
L 332.60979 47.875034 
L 335.118282 44.613977 
L 335.954446 45.424152 
L 336.790609 44.647904 
L 337.626773 43.461818 
L 338.462937 44.058932 
L 341.807592 44.882678 
L 342.643756 46.726947 
L 343.47992 45.626357 
L 346.824575 50.63533 
L 347.660739 51.627354 
L 348.496903 51.465862 
L 349.333067 51.601569 
L 350.169231 53.548976 
L 352.677722 62.854457 
L 353.513886 63.950975 
L 354.35005 60.98169 
L 355.186214 54.379507 
L 356.022378 54.688921 
L 358.530869 55.47874 
L 360.203197 65.213057 
L 361.039361 65.622895 
L 361.875524 66.621704 
L 364.384016 69.292433 
L 365.22018 67.430522 
L 366.056344 67.927213 
L 366.892507 59.187633 
L 367.728671 61.623587 
L 370.237163 61.099755 
L 371.073327 66.662416 
L 371.909491 66.936546 
L 372.745654 57.863125 
L 373.581818 52.965432 
L 373.581818 52.965432 
" style="fill:none;stroke:#2ca02c;stroke-linecap:square;stroke-width:1.5;"/>
   </g>
   <g id="line2d_19">
    <path clip-path="url(#pcebca56b14)" d="M 69.218182 188.044863 
L 71.726673 196.257896 
L 72.562837 194.12457 
L 73.399001 194.476053 
L 74.235165 196.880795 
L 75.071329 193.473173 
L 77.57982 203.731322 
L 78.415984 200.494692 
L 79.252148 216.755196 
L 80.088312 217.986065 
L 80.924476 221.498182 
L 83.432967 215.282767 
L 84.269131 207.613921 
L 85.105295 198.260943 
L 85.941459 187.326969 
L 86.777622 187.516959 
L 89.286114 178.948372 
L 90.122278 183.775497 
L 90.958442 177.656434 
L 91.794605 182.870326 
L 92.630769 178.257619 
L 95.139261 171.799287 
L 95.975425 173.357212 
L 97.647752 179.442348 
L 98.483916 177.67679 
L 100.992408 178.230478 
L 101.828571 172.564679 
L 102.664735 169.41083 
L 104.337063 167.840692 
L 106.845554 172.582321 
L 107.681718 165.596085 
L 108.517882 165.735864 
L 110.19021 162.193892 
L 112.698701 161.116372 
L 113.534865 161.123158 
L 114.371029 163.605253 
L 115.207193 165.689724 
L 116.043357 167.288361 
L 118.551848 165.600157 
L 119.388012 163.730104 
L 120.224176 159.801364 
L 121.06034 156.775081 
L 121.896503 160.171846 
L 124.404995 166.870381 
L 125.241159 161.485497 
L 126.077323 159.705012 
L 126.913487 159.699583 
L 130.258142 155.124875 
L 131.094306 155.086877 
L 131.93047 154.150493 
L 132.766633 154.6024 
L 136.111289 163.310767 
L 136.947453 158.919264 
L 137.783616 157.525545 
L 138.61978 149.468576 
L 139.455944 146.905056 
L 141.964436 146.16952 
L 142.800599 147.867224 
L 143.636763 145.832965 
L 144.472927 145.648402 
L 145.309091 151.516406 
L 148.653746 147.343392 
L 149.48991 142.478269 
L 150.326074 138.565814 
L 151.162238 140.552576 
L 153.670729 145.064859 
L 154.506893 138.195332 
L 155.343057 153.842437 
L 156.179221 150.684517 
L 157.015385 159.048186 
L 159.523876 154.773392 
L 160.36004 145.786824 
L 161.196204 142.415843 
L 162.032368 139.704402 
L 162.868531 134.510867 
L 165.377023 132.114268 
L 166.213187 130.750405 
L 167.049351 133.152432 
L 167.885514 132.412825 
L 168.721678 130.324282 
L 172.066334 127.872043 
L 172.902498 131.050319 
L 173.738661 133.140218 
L 174.574825 130.69205 
L 177.083317 134.540722 
L 177.919481 143.920842 
L 178.755644 136.591267 
L 179.591808 142.774112 
L 180.427972 146.098952 
L 182.936464 138.910512 
L 183.772627 135.373968 
L 184.608791 142.120001 
L 185.444955 155.082805 
L 186.281119 154.153207 
L 189.625774 137.632145 
L 191.298102 128.999775 
L 192.134266 129.044558 
L 194.642757 127.914113 
L 195.478921 123.856451 
L 196.315085 126.258478 
L 197.987413 132.906801 
L 200.495904 129.187051 
L 202.168232 132.591959 
L 203.004396 137.419084 
L 203.840559 128.785356 
L 206.349051 125.239313 
L 207.185215 125.090034 
L 208.021379 122.018968 
L 208.857542 118.517707 
L 212.202198 112.864122 
L 213.038362 108.290771 
L 213.874525 108.267701 
L 215.546853 104.57645 
L 218.055345 101.955933 
L 218.891508 100.651781 
L 219.727672 101.134901 
L 220.563836 98.571381 
L 221.4 94.365798 
L 223.908492 97.117951 
L 224.744655 101.472813 
L 225.580819 100.391222 
L 226.416983 100.752205 
L 229.761638 92.790231 
L 230.597802 93.623476 
L 231.433966 92.868941 
L 232.27013 93.543409 
L 233.106294 93.809396 
L 235.614785 92.020768 
L 236.450949 100.087237 
L 237.287113 95.697091 
L 238.123277 97.544074 
L 238.959441 90.173785 
L 241.467932 92.007197 
L 242.304096 102.402411 
L 243.14026 109.81884 
L 243.976424 107.361173 
L 244.812587 99.952886 
L 247.321079 98.173758 
L 248.157243 100.440077 
L 248.993407 109.204084 
L 249.82957 100.985622 
L 250.665734 96.948316 
L 253.174226 94.445865 
L 254.01039 92.768518 
L 254.846553 92.552742 
L 255.682717 90.697617 
L 256.518881 89.911869 
L 259.863536 90.723402 
L 260.6997 90.63112 
L 261.535864 94.748494 
L 262.372028 89.575314 
L 264.880519 88.271163 
L 265.716683 89.255044 
L 266.552847 87.853183 
L 267.389011 87.63605 
L 268.225175 86.019771 
L 270.733666 85.772783 
L 271.56983 85.191953 
L 272.405994 90.063862 
L 273.242158 90.932392 
L 274.078322 95.227542 
L 276.586813 94.006172 
L 277.422977 88.052673 
L 278.259141 84.773974 
L 279.931469 80.739382 
L 282.43996 80.263048 
L 283.276124 78.584343 
L 284.112288 78.459492 
L 284.948452 76.726504 
L 285.784615 73.215744 
L 289.129271 74.87545 
L 289.965435 72.782836 
L 290.801598 78.268144 
L 291.637762 72.838476 
L 294.146254 68.136203 
L 294.982418 67.744007 
L 295.818581 68.362835 
L 296.654745 71.302265 
L 297.490909 73.768075 
L 299.999401 85.900348 
L 300.835564 81.97568 
L 301.671728 72.600988 
L 302.507892 70.03204 
L 303.344056 65.8061 
L 305.852547 62.515187 
L 306.688711 66.985401 
L 308.361039 62.767604 
L 309.197203 64.65937 
L 311.705694 65.316195 
L 312.541858 66.918904 
L 313.378022 63.223582 
L 314.214186 62.052424 
L 315.05035 59.30977 
L 317.558841 59.897385 
L 318.395005 59.179491 
L 319.231169 58.312318 
L 320.067333 58.374744 
L 320.903497 55.001049 
L 323.411988 58.14404 
L 325.084316 63.58185 
L 325.92048 67.634084 
L 326.756643 62.331982 
L 329.265135 56.430051 
L 330.101299 52.08876 
L 330.937463 51.630068 
L 331.773626 53.892316 
L 332.60979 53.19885 
L 335.118282 47.81668 
L 335.954446 47.539836 
L 336.790609 46.695734 
L 337.626773 46.337466 
L 338.462937 46.793444 
L 341.807592 47.919818 
L 342.643756 50.505051 
L 343.47992 50.760181 
L 344.316084 55.429885 
L 346.824575 57.05295 
L 347.660739 58.442597 
L 348.496903 58.047688 
L 349.333067 57.310795 
L 350.169231 59.487547 
L 352.677722 76.023537 
L 353.513886 70.317026 
L 354.35005 67.674796 
L 355.186214 62.338767 
L 356.022378 59.146921 
L 358.530869 58.343531 
L 359.367033 70.53823 
L 360.203197 69.350787 
L 361.039361 75.978754 
L 361.875524 78.383495 
L 364.384016 79.683576 
L 365.22018 75.486135 
L 366.056344 78.116151 
L 366.892507 65.46276 
L 367.728671 65.124847 
L 370.237163 68.603037 
L 371.073327 71.113631 
L 371.909491 72.765194 
L 373.581818 56.782892 
L 373.581818 56.782892 
" style="fill:none;stroke:#d62728;stroke-linecap:square;stroke-width:1.5;"/>
   </g>
   <g id="patch_3">
    <path d="M 54 230.4 
L 54 34.56 
" style="fill:none;stroke:#000000;stroke-linecap:square;stroke-linejoin:miter;stroke-width:0.8;"/>
   </g>
   <g id="patch_4">
    <path d="M 388.8 230.4 
L 388.8 34.56 
" style="fill:none;stroke:#000000;stroke-linecap:square;stroke-linejoin:miter;stroke-width:0.8;"/>
   </g>
   <g id="patch_5">
    <path d="M 54 230.4 
L 388.8 230.4 
" style="fill:none;stroke:#000000;stroke-linecap:square;stroke-linejoin:miter;stroke-width:0.8;"/>
   </g>
   <g id="patch_6">
    <path d="M 54 34.56 
L 388.8 34.56 
" style="fill:none;stroke:#000000;stroke-linecap:square;stroke-linejoin:miter;stroke-width:0.8;"/>
   </g>
   <g id="legend_1">
    <g id="patch_7">
     <path d="M 61 101.2725 
L 144.440625 101.2725 
Q 146.440625 101.2725 146.440625 99.2725 
L 146.440625 41.56 
Q 146.440625 39.56 144.440625 39.56 
L 61 39.56 
Q 59 39.56 59 41.56 
L 59 99.2725 
Q 59 101.2725 61 101.2725 
z
" style="fill:#ffffff;opacity:0.8;stroke:#cccccc;stroke-linejoin:miter;"/>
    </g>
    <g id="line2d_20">
     <path d="M 63 47.658437 
L 83 47.658437 
" style="fill:none;stroke:#1f77b4;stroke-linecap:square;stroke-width:1.5;"/>
    </g>
    <g id="line2d_21"/>
    <g id="text_17">
     <!-- Close/Last -->
     <g transform="translate(91 51.158437)scale(0.1 -0.1)">
      <defs>
       <path d="M 4122 4306 
L 4122 3641 
Q 3803 3938 3442 4084 
Q 3081 4231 2675 4231 
Q 1875 4231 1450 3742 
Q 1025 3253 1025 2328 
Q 1025 1406 1450 917 
Q 1875 428 2675 428 
Q 3081 428 3442 575 
Q 3803 722 4122 1019 
L 4122 359 
Q 3791 134 3420 21 
Q 3050 -91 2638 -91 
Q 1578 -91 968 557 
Q 359 1206 359 2328 
Q 359 3453 968 4101 
Q 1578 4750 2638 4750 
Q 3056 4750 3426 4639 
Q 3797 4528 4122 4306 
z
" id="DejaVuSans-43" transform="scale(0.015625)"/>
       <path d="M 603 4863 
L 1178 4863 
L 1178 0 
L 603 0 
L 603 4863 
z
" id="DejaVuSans-6c" transform="scale(0.015625)"/>
       <path d="M 1959 3097 
Q 1497 3097 1228 2736 
Q 959 2375 959 1747 
Q 959 1119 1226 758 
Q 1494 397 1959 397 
Q 2419 397 2687 759 
Q 2956 1122 2956 1747 
Q 2956 2369 2687 2733 
Q 2419 3097 1959 3097 
z
M 1959 3584 
Q 2709 3584 3137 3096 
Q 3566 2609 3566 1747 
Q 3566 888 3137 398 
Q 2709 -91 1959 -91 
Q 1206 -91 779 398 
Q 353 888 353 1747 
Q 353 2609 779 3096 
Q 1206 3584 1959 3584 
z
" id="DejaVuSans-6f" transform="scale(0.015625)"/>
       <path d="M 2834 3397 
L 2834 2853 
Q 2591 2978 2328 3040 
Q 2066 3103 1784 3103 
Q 1356 3103 1142 2972 
Q 928 2841 928 2578 
Q 928 2378 1081 2264 
Q 1234 2150 1697 2047 
L 1894 2003 
Q 2506 1872 2764 1633 
Q 3022 1394 3022 966 
Q 3022 478 2636 193 
Q 2250 -91 1575 -91 
Q 1294 -91 989 -36 
Q 684 19 347 128 
L 347 722 
Q 666 556 975 473 
Q 1284 391 1588 391 
Q 1994 391 2212 530 
Q 2431 669 2431 922 
Q 2431 1156 2273 1281 
Q 2116 1406 1581 1522 
L 1381 1569 
Q 847 1681 609 1914 
Q 372 2147 372 2553 
Q 372 3047 722 3315 
Q 1072 3584 1716 3584 
Q 2034 3584 2315 3537 
Q 2597 3491 2834 3397 
z
" id="DejaVuSans-73" transform="scale(0.015625)"/>
       <path d="M 1625 4666 
L 2156 4666 
L 531 -594 
L 0 -594 
L 1625 4666 
z
" id="DejaVuSans-2f" transform="scale(0.015625)"/>
       <path d="M 628 4666 
L 1259 4666 
L 1259 531 
L 3531 531 
L 3531 0 
L 628 0 
L 628 4666 
z
" id="DejaVuSans-4c" transform="scale(0.015625)"/>
      </defs>
      <use xlink:href="#DejaVuSans-43"/>
      <use x="69.824219" xlink:href="#DejaVuSans-6c"/>
      <use x="97.607422" xlink:href="#DejaVuSans-6f"/>
      <use x="158.789062" xlink:href="#DejaVuSans-73"/>
      <use x="210.888672" xlink:href="#DejaVuSans-65"/>
      <use x="272.412109" xlink:href="#DejaVuSans-2f"/>
      <use x="306.103516" xlink:href="#DejaVuSans-4c"/>
      <use x="361.816406" xlink:href="#DejaVuSans-61"/>
      <use x="423.095703" xlink:href="#DejaVuSans-73"/>
      <use x="475.195312" xlink:href="#DejaVuSans-74"/>
     </g>
    </g>
    <g id="line2d_22">
     <path d="M 63 62.336562 
L 83 62.336562 
" style="fill:none;stroke:#ff7f0e;stroke-linecap:square;stroke-width:1.5;"/>
    </g>
    <g id="line2d_23"/>
    <g id="text_18">
     <!-- Open -->
     <g transform="translate(91 65.836562)scale(0.1 -0.1)">
      <defs>
       <path d="M 2522 4238 
Q 1834 4238 1429 3725 
Q 1025 3213 1025 2328 
Q 1025 1447 1429 934 
Q 1834 422 2522 422 
Q 3209 422 3611 934 
Q 4013 1447 4013 2328 
Q 4013 3213 3611 3725 
Q 3209 4238 2522 4238 
z
M 2522 4750 
Q 3503 4750 4090 4092 
Q 4678 3434 4678 2328 
Q 4678 1225 4090 567 
Q 3503 -91 2522 -91 
Q 1538 -91 948 565 
Q 359 1222 359 2328 
Q 359 3434 948 4092 
Q 1538 4750 2522 4750 
z
" id="DejaVuSans-4f" transform="scale(0.015625)"/>
       <path d="M 1159 525 
L 1159 -1331 
L 581 -1331 
L 581 3500 
L 1159 3500 
L 1159 2969 
Q 1341 3281 1617 3432 
Q 1894 3584 2278 3584 
Q 2916 3584 3314 3078 
Q 3713 2572 3713 1747 
Q 3713 922 3314 415 
Q 2916 -91 2278 -91 
Q 1894 -91 1617 61 
Q 1341 213 1159 525 
z
M 3116 1747 
Q 3116 2381 2855 2742 
Q 2594 3103 2138 3103 
Q 1681 3103 1420 2742 
Q 1159 2381 1159 1747 
Q 1159 1113 1420 752 
Q 1681 391 2138 391 
Q 2594 391 2855 752 
Q 3116 1113 3116 1747 
z
" id="DejaVuSans-70" transform="scale(0.015625)"/>
       <path d="M 3513 2113 
L 3513 0 
L 2938 0 
L 2938 2094 
Q 2938 2591 2744 2837 
Q 2550 3084 2163 3084 
Q 1697 3084 1428 2787 
Q 1159 2491 1159 1978 
L 1159 0 
L 581 0 
L 581 3500 
L 1159 3500 
L 1159 2956 
Q 1366 3272 1645 3428 
Q 1925 3584 2291 3584 
Q 2894 3584 3203 3211 
Q 3513 2838 3513 2113 
z
" id="DejaVuSans-6e" transform="scale(0.015625)"/>
      </defs>
      <use xlink:href="#DejaVuSans-4f"/>
      <use x="78.710938" xlink:href="#DejaVuSans-70"/>
      <use x="142.1875" xlink:href="#DejaVuSans-65"/>
      <use x="203.710938" xlink:href="#DejaVuSans-6e"/>
     </g>
    </g>
    <g id="line2d_24">
     <path d="M 63 77.014687 
L 83 77.014687 
" style="fill:none;stroke:#2ca02c;stroke-linecap:square;stroke-width:1.5;"/>
    </g>
    <g id="line2d_25"/>
    <g id="text_19">
     <!-- High -->
     <g transform="translate(91 80.514687)scale(0.1 -0.1)">
      <defs>
       <path d="M 628 4666 
L 1259 4666 
L 1259 2753 
L 3553 2753 
L 3553 4666 
L 4184 4666 
L 4184 0 
L 3553 0 
L 3553 2222 
L 1259 2222 
L 1259 0 
L 628 0 
L 628 4666 
z
" id="DejaVuSans-48" transform="scale(0.015625)"/>
       <path d="M 603 3500 
L 1178 3500 
L 1178 0 
L 603 0 
L 603 3500 
z
M 603 4863 
L 1178 4863 
L 1178 4134 
L 603 4134 
L 603 4863 
z
" id="DejaVuSans-69" transform="scale(0.015625)"/>
       <path d="M 2906 1791 
Q 2906 2416 2648 2759 
Q 2391 3103 1925 3103 
Q 1463 3103 1205 2759 
Q 947 2416 947 1791 
Q 947 1169 1205 825 
Q 1463 481 1925 481 
Q 2391 481 2648 825 
Q 2906 1169 2906 1791 
z
M 3481 434 
Q 3481 -459 3084 -895 
Q 2688 -1331 1869 -1331 
Q 1566 -1331 1297 -1286 
Q 1028 -1241 775 -1147 
L 775 -588 
Q 1028 -725 1275 -790 
Q 1522 -856 1778 -856 
Q 2344 -856 2625 -561 
Q 2906 -266 2906 331 
L 2906 616 
Q 2728 306 2450 153 
Q 2172 0 1784 0 
Q 1141 0 747 490 
Q 353 981 353 1791 
Q 353 2603 747 3093 
Q 1141 3584 1784 3584 
Q 2172 3584 2450 3431 
Q 2728 3278 2906 2969 
L 2906 3500 
L 3481 3500 
L 3481 434 
z
" id="DejaVuSans-67" transform="scale(0.015625)"/>
       <path d="M 3513 2113 
L 3513 0 
L 2938 0 
L 2938 2094 
Q 2938 2591 2744 2837 
Q 2550 3084 2163 3084 
Q 1697 3084 1428 2787 
Q 1159 2491 1159 1978 
L 1159 0 
L 581 0 
L 581 4863 
L 1159 4863 
L 1159 2956 
Q 1366 3272 1645 3428 
Q 1925 3584 2291 3584 
Q 2894 3584 3203 3211 
Q 3513 2838 3513 2113 
z
" id="DejaVuSans-68" transform="scale(0.015625)"/>
      </defs>
      <use xlink:href="#DejaVuSans-48"/>
      <use x="75.195312" xlink:href="#DejaVuSans-69"/>
      <use x="102.978516" xlink:href="#DejaVuSans-67"/>
      <use x="166.455078" xlink:href="#DejaVuSans-68"/>
     </g>
    </g>
    <g id="line2d_26">
     <path d="M 63 91.692813 
L 83 91.692813 
" style="fill:none;stroke:#d62728;stroke-linecap:square;stroke-width:1.5;"/>
    </g>
    <g id="line2d_27"/>
    <g id="text_20">
     <!-- Low -->
     <g transform="translate(91 95.192813)scale(0.1 -0.1)">
      <defs>
       <path d="M 269 3500 
L 844 3500 
L 1563 769 
L 2278 3500 
L 2956 3500 
L 3675 769 
L 4391 3500 
L 4966 3500 
L 4050 0 
L 3372 0 
L 2619 2869 
L 1863 0 
L 1184 0 
L 269 3500 
z
" id="DejaVuSans-77" transform="scale(0.015625)"/>
      </defs>
      <use xlink:href="#DejaVuSans-4c"/>
      <use x="53.962891" xlink:href="#DejaVuSans-6f"/>
      <use x="115.144531" xlink:href="#DejaVuSans-77"/>
     </g>
    </g>
   </g>
  </g>
 </g>
 <defs>
  <clipPath id="pcebca56b14">
   <rect height="195.84" width="334.8" x="54" y="34.56"/>
  </clipPath>
 </defs>
</svg>
