<?xml version="1.0" encoding="iso-8859-1"?>
<!-- Generator: Adobe Illustrator 19.0.0, SVG Export Plug-In . SVG Version: 6.00 Build 0)  -->
<svg version="1.1" id="Layer_1" xmlns="http://www.w3.org/2000/svg" xmlns:xlink="http://www.w3.org/1999/xlink" x="0px" y="0px"
	 viewBox="0 0 510.123 510.123" style="enable-background:new 0 0 510.123 510.123; filter:invert(100)" xml:space="preserve">
<g>
	<g>
		<g>
			<path d="M349.387,254.805c-0.021,5.376-3.947,10.027-9.429,10.581c-0.363,0.021-0.704,0.043-1.088,0.043
				c-5.397,0-10.048-4.096-10.581-9.6l-0.107-1.024h-72.064c1.536,0.448,3.029,1.131,4.288,2.304
				c4.331,3.989,4.608,10.731,0.597,15.083l-14.208,15.381c-2.112,2.261-4.949,3.435-7.829,3.435c-2.581,0-5.184-0.939-7.232-2.837
				c-4.331-3.989-4.608-10.731-0.597-15.083l14.208-15.381c1.451-1.557,3.307-2.411,5.248-2.901H182.88l177.877,224.277
				c0.213-0.043,0.384-0.171,0.597-0.171c5.653-0.469,11.093,3.691,11.669,9.557l0.704,6.955l2.645,3.328l132.096-243.947H349.387z
				 M334.667,319.851l-2.133-21.333c-0.576-5.845,3.691-11.093,9.536-11.669c6.208-0.491,11.115,3.691,11.669,9.557l2.133,21.333
				c0.576,5.845-3.691,11.093-9.536,11.669c-0.384,0.021-0.725,0.043-1.088,0.043C339.872,329.472,335.221,325.376,334.667,319.851z
				 M341.109,383.893l-2.155-21.333c-0.597-5.845,3.669-11.093,9.536-11.669c5.397-0.555,11.093,3.669,11.669,9.557l2.155,21.333
				c0.597,5.845-3.669,11.093-9.536,11.669c-0.363,0.021-0.704,0.043-1.088,0.043C346.272,393.493,341.664,389.397,341.109,383.893z
				 M359.157,457.472c-0.384,0.021-0.725,0.043-1.088,0.043c-5.419,0-10.048-4.096-10.581-9.621l-2.133-21.333
				c-0.576-5.845,3.691-11.093,9.536-11.669c6.123-0.405,11.093,3.691,11.669,9.557l2.133,21.333
				C369.269,451.648,365.024,456.875,359.157,457.472z"/>
			<path d="M353.888,504.811L211.723,325.568l-7.552,8.192c-2.112,2.283-4.949,3.435-7.829,3.435c-2.581,0-5.184-0.939-7.232-2.816
				c-4.331-4.011-4.608-10.752-0.597-15.083l9.813-10.645l-34.368-43.328l-54.72,139.819l8.235-8.917
				c4.011-4.309,10.752-4.587,15.061-0.597c4.331,3.989,4.608,10.731,0.597,15.083l-14.208,15.381
				c-2.112,2.261-4.949,3.435-7.829,3.435c-2.581,0-5.184-0.939-7.232-2.837c-0.875-0.789-1.451-1.771-1.984-2.731l-9.045,23.125
				c0.853,3.371,0.213,7.061-2.325,9.792l-2.624,2.837l-3.84,9.813l274.091,40.597l-1.472-1.835
				C355.488,507.328,354.549,506.176,353.888,504.811z M175.755,364.523l-14.208,15.403c-2.112,2.283-4.949,3.435-7.829,3.435
				c-2.581,0-5.184-0.939-7.232-2.816c-4.331-4.011-4.608-10.752-0.597-15.083l14.208-15.403c4.011-4.331,10.752-4.587,15.061-0.619
				C179.488,353.451,179.765,360.192,175.755,364.523z"/>
			<path d="M224.8,180.117c0,5.888-4.779,10.667-10.667,10.667h-11.499l-23.701,42.667h92.203c0.149-2.347,0.917-4.672,2.645-6.549
				l14.208-15.403c4.011-4.331,10.752-4.587,15.061-0.619c4.331,4.011,4.608,10.752,0.597,15.083l-6.912,7.509h29.525
				c-0.021-5.419,3.925-10.091,9.451-10.645c5.376-0.597,11.093,3.669,11.669,9.557l0.107,1.088h95.829l-11.435-4.288
				c-5.504-2.069-8.32-8.213-6.229-13.739c2.069-5.525,8.171-8.32,13.739-6.251l18.859,7.061c5.504,2.069,8.32,8.213,6.229,13.739
				c-0.555,1.472-1.685,2.432-2.709,3.477h22.4c2.837-3.285,7.488-4.672,11.755-3.072l8.171,3.072h2.773L303.328,9.579l-2.432,4.331
				l0.832,3.307c1.408,5.717-2.069,11.499-7.765,12.928c-0.768,0.192-1.493,0.256-2.24,0.277l-77.269,139.093
				C220.192,169.685,224.8,174.336,224.8,180.117z M369.141,194.261c2.069-5.525,8.256-8.299,13.739-6.229l18.837,7.061
				c5.525,2.069,8.32,8.213,6.229,13.739c-1.6,4.288-5.675,6.912-9.984,6.912c-1.259,0-2.517-0.213-3.755-0.683L375.371,208
				C369.824,205.931,367.051,199.787,369.141,194.261z M339.211,167.211l1.237,4.907l4.736,1.771
				c5.525,2.069,8.32,8.235,6.229,13.739c-1.451,3.883-5.013,6.144-8.875,6.571c-1.323,3.797-4.693,6.72-8.96,7.147
				c-0.363,0.021-0.725,0.043-1.088,0.043c-2.795,0-5.376-1.152-7.296-2.987c-0.341,0.021-0.64,0.192-0.981,0.192
				c-2.581,0-5.184-0.939-7.232-2.816c-2.283-2.112-3.371-4.992-3.349-7.872c-2.133-1.941-3.52-4.693-3.52-7.808
				c0-5.056,3.584-9.088,8.299-10.197c-0.064-4.843,2.987-9.28,7.872-10.496C332,157.973,337.781,161.472,339.211,167.211z
				 M325.152,110.976l4.693,18.731c1.408,5.717-2.048,11.499-7.765,12.928c-0.853,0.213-1.728,0.32-2.581,0.32
				c-4.8,0-9.152-3.221-10.347-8.085l-4.693-18.731c-1.408-5.717,2.027-11.499,7.765-12.928
				C317.835,101.739,323.723,105.259,325.152,110.976z M298.165,46.955c5.589-1.493,11.499,2.048,12.928,7.765l4.693,18.752
				c1.408,5.717-2.048,11.499-7.765,12.928c-0.853,0.213-1.728,0.32-2.581,0.32c-4.8,0-9.152-3.221-10.347-8.085L290.4,59.883
				C288.992,54.165,292.448,48.384,298.165,46.955z M256.779,169.472h21.333c5.888,0,10.667,4.779,10.667,10.667
				s-4.779,10.667-10.667,10.667h-21.333c-5.888,0-10.667-4.779-10.667-10.667S250.891,169.472,256.779,169.472z"/>
			<path d="M22.112,169.472c3.947,0,7.232,2.219,9.067,5.397l24.853,11.051c-1.109-1.685-1.92-3.605-1.92-5.781
				c0-5.888,4.779-10.667,10.667-10.667h21.333c5.888,0,10.667,4.779,10.667,10.667S92,190.805,86.112,190.805H67.04l89.131,39.616
				l26.453-47.616c-0.235-0.875-0.533-1.707-0.533-2.667c0-4.8,3.221-8.704,7.595-10.048l88.64-159.573
				c-0.427-4.416,1.856-8.469,5.781-10.411L284.171,0c-0.341,0.149-0.704,0.213-1.003,0.405L12.853,166.741l6.187,2.731H22.112z
				 M128.779,169.472h21.333c5.888,0,10.667,4.779,10.667,10.667s-4.779,10.667-10.667,10.667h-21.333
				c-5.888,0-10.667-4.779-10.667-10.667S122.891,169.472,128.779,169.472z"/>
			<path d="M14.496,190.805h-3.051c-3.947,0-7.232-2.219-9.067-5.397l-0.725-0.32l63.36,274.56l0.128-0.32
				c-0.576-3.179,0.107-6.549,2.475-9.088l1.835-2.005l77.653-198.507L14.496,190.805z"/>
		</g>
	</g>
</g>
<g>
</g>
<g>
</g>
<g>
</g>
<g>
</g>
<g>
</g>
<g>
</g>
<g>
</g>
<g>
</g>
<g>
</g>
<g>
</g>
<g>
</g>
<g>
</g>
<g>
</g>
<g>
</g>
<g>
</g>
</svg>
